# xmcd CD database file
# Copyright (C) 1993-1998 Ti Kan
#
# Track frame offsets:
#	150
#	9490
#	31115
#	48925
#	63340
#	74445
#	89072
#	102730
#	115187
#	133222
#	142230
#	156322
#	198375
#	208932
#	235502
#
# Disc length: 3700 seconds
#
# Revision: 0
# Processed by: cddbd v1.4b41PL1 Copyright (c) Steve Scherf et al.
# Submitted via: CDmax 1.5
#
DISCID=e10e720f
DTITLE=James Brown - Greatest Live Performances
DYEAR=1900
DGENRE=
TTITLE0=Papa's got a brand new bag
TTITLE1=Say it loud - I'm black and I'm proud
TTITLE2=Cold Sweat
TTITLE3=Think
TTITLE4=I Got You (I Feel Good)
TTITLE5=It's a man's mans' man's world
TTITLE6=It may be the last time
TTITLE7=Stagger Lee
TTITLE8=Gonna have a funky good time (doing it to death)
TTITLE9=Try Me
TTITLE10=Get on the good foot
TTITLE11=Prisoner of Love
TTITLE12=Get up off that thing
TTITLE13=Georgia on my mind
TTITLE14=(Give it up) Turn it loose - It's too funky in here
EXTD=
EXTT0=
EXTT1=
EXTT2=
EXTT3=
EXTT4=
EXTT5=
EXTT6=
EXTT7=
EXTT8=
EXTT9=
EXTT10=
EXTT11=
EXTT12=
EXTT13=
EXTT14=
PLAYORDER=
